HIERARCHY
ROOT hip
{
	OFFSET 0.000000 0.000000 0.000000
	CHANNELS 6 Xposition Yposition Zposition Xrotation Zrotation Yrotation 
	JOINT abdomen
	{
		OFFSET 0.000000 3.422050 0.000000
		CHANNELS 3 Xrotation Zrotation Yrotation 
		JOINT chest
		{
			OFFSET 0.000000 8.486693 -0.684411
			CHANNELS 3 Xrotation Zrotation Yrotation 
			JOINT neck
			{
				OFFSET 0.000000 10.266162 -0.273764
				CHANNELS 3 Xrotation Zrotation Yrotation 
				JOINT head
				{
					OFFSET 0.000000 3.148285 0.000000
					CHANNELS 3 Xrotation Zrotation Yrotation 
					End Site
					{
						OFFSET 0.000000 3.148289 0.000000
					}
				}
			}
			JOINT lCollar
			{
				OFFSET 3.422053 6.707223 -0.821293
				CHANNELS 3 Yrotation Zrotation Xrotation 
				JOINT lShldr
				{
					OFFSET 3.285171 0.000000 0.000000
					CHANNELS 3 Zrotation Yrotation Xrotation 
					JOINT lForeArm
					{
						OFFSET 10.129278 0.000000 0.000000
						CHANNELS 3 Yrotation Zrotation Xrotation 
						JOINT lHand
						{
							OFFSET 8.486692 0.000000 0.000000
							CHANNELS 3 Zrotation Yrotation Xrotation 
							End Site
							{
								OFFSET 4.106464 0.000000 0.000000
							}
						}
					}
				}
			}
			JOINT rCollar
			{
				OFFSET -3.558935 6.707223 -0.821293
				CHANNELS 3 Yrotation Zrotation Xrotation 
				JOINT rShldr
				{
					OFFSET -3.148289 0.000000 0.000000
					CHANNELS 3 Zrotation Yrotation Xrotation 
					JOINT rForeArm
					{
						OFFSET -10.266159 0.000000 0.000000
						CHANNELS 3 Yrotation Zrotation Xrotation 
						JOINT rHand
						{
							OFFSET -8.349810 0.000000 0.000000
							CHANNELS 3 Zrotation Yrotation Xrotation 
							End Site
							{
								OFFSET -4.106464 0.000000 0.000000
							}
						}
					}
				}
			}
		}
	}
	JOINT lThigh
	{
		OFFSET 5.338403 -1.642589 1.368821
		CHANNELS 3 Xrotation Zrotation Yrotation 
		JOINT lShin
		{
			OFFSET -2.053232 -20.121670 0.000000
			CHANNELS 3 Xrotation Zrotation Yrotation 
			JOINT lFoot
			{
				OFFSET 0.000000 -19.300380 -1.231939
				CHANNELS 3 Xrotation Yrotation Zrotation 
				End Site
				{
					OFFSET 0.000000 -2.463878 4.653993
				}
			}
		}
	}
	JOINT rThigh
	{
		OFFSET -5.338403 -1.642589 1.368821
		CHANNELS 3 Xrotation Zrotation Yrotation 
		JOINT rShin
		{
			OFFSET 2.053232 -20.121670 0.000000
			CHANNELS 3 Xrotation Zrotation Yrotation 
			JOINT rFoot
			{
				OFFSET 0.000000 -19.300380 -1.231939
				CHANNELS 3 Xrotation Yrotation Zrotation 
				End Site
				{
					OFFSET 0.000000 -2.463878 4.653993
				}
			}
		}
	}
}
MOTION
Frames: 11
Frame Time: 0.076905
0.000000 43.528500 0.000000 0.000000 0.000000 0.000000 0.000000 0.000000 0.000000 0.000000 0.000000 0.000000 0.000000 0.000000 0.000000 0.000000 0.000000 0.000000 0.000000 0.000000 0.000000 0.000000 0.000000 0.000000 0.000000 0.000000 0.000000 0.000000 0.000000 0.000000 0.000000 0.000000 0.000000 0.000000 0.000000 0.000000 0.000000 0.000000 0.000000 0.000000 0.000000 0.000000 0.000000 0.000000 0.000000 0.000000 0.000000 0.000000 0.000000 0.000000 0.000000 0.000000 0.000000 0.000000 0.000000 0.000000 0.000000 0.000000 0.000000 0.000000 
0.351432 5.402042 -4.622759 -89.999779 -0.002623 -49.999363 30.732277 -16.266411 -8.121085 11.111481 -9.182266 -14.612913 -0.786815 -27.171150 7.936824 -1.744937 -0.847306 29.281582 -17.698339 -4.016383 -3.513832 -60.176044 -31.330986 -67.838882 13.880857 -7.049634 65.993668 -60.697994 56.728516 -22.467068 -70.822762 -6.761184 -2.642969 15.399710 25.615841 36.148388 76.042709 -44.017902 29.891783 -15.271453 6.308604 -4.987167 -69.575821 47.088875 42.798027 79.269035 9.246620 -0.668488 44.017540 -15.055641 6.891976 -79.460342 -35.139969 4.314898 70.694664 -2.677670 -0.241996 14.690996 4.622800 10.517703 
0.351432 5.402042 -4.622759 -89.999779 -0.002623 -49.999363 30.732277 -16.266411 -8.121085 10.276159 -9.212957 -14.622368 -0.808637 -26.827360 7.498964 -1.926013 -0.641821 29.299057 -17.588091 -4.317355 -3.505946 -60.343807 -31.066648 -67.747620 13.880857 -7.049634 65.993668 -59.292778 56.889668 -21.117327 -70.486420 -6.888719 -2.974478 15.399710 25.615841 36.148388 76.042702 -44.017891 29.891781 -14.533423 6.491086 -4.593547 -69.575821 47.088871 42.798027 79.269035 9.246620 -0.668488 44.017540 -15.055641 6.891976 -79.460335 -35.139965 4.314894 70.694664 -2.677669 -0.241996 14.690996 4.622800 10.517703 
0.351432 5.402042 -4.622759 -89.999779 -0.002623 -49.999363 30.732277 -16.266411 -8.121085 9.440056 -9.243810 -14.631377 -0.833369 -26.483160 7.061563 -2.107089 -0.436205 29.315893 -17.477737 -4.618349 -3.497474 -60.510635 -30.802046 -67.657509 13.880857 -7.049634 65.993668 -57.874111 57.032684 -19.754129 -70.150612 -7.018224 -3.305424 15.399709 25.615839 36.148388 76.042709 -44.017902 29.891783 -13.793273 6.668651 -4.197125 -69.575806 47.088863 42.798023 79.269035 9.246619 -0.668489 44.017536 -15.055639 6.891975 -79.460342 -35.139969 4.314898 70.694656 -2.677670 -0.241996 14.690996 4.622800 10.517703 
0.351432 5.402042 -4.622759 -89.999794 -0.002625 -49.999367 30.732277 -16.266413 -8.121085 8.603253 -9.274810 -14.639935 -0.861001 -26.138596 6.624604 -2.288167 -0.230462 29.332094 -17.367277 -4.919358 -3.488415 -60.676517 -30.537199 -67.568527 13.880857 -7.049634 65.993668 -56.443462 57.157276 -18.378941 -69.815384 -7.149689 -3.635788 15.399710 25.615841 36.148388 76.042717 -44.017902 29.891783 -13.051106 6.841231 -3.797996 -69.575829 47.088875 42.798031 79.269035 9.246620 -0.668488 44.017544 -15.055643 6.891977 -79.460342 -35.139969 4.314898 70.694664 -2.677670 -0.241996 14.690996 4.622800 10.517703 
0.351432 5.402042 -4.622759 -89.999779 -0.002623 -49.999363 30.732277 -16.266411 -8.121085 7.765841 -9.305948 -14.648039 -0.891518 -25.793707 6.188073 -2.469247 -0.024596 29.347633 -17.256712 -5.220377 -3.478770 -60.841515 -30.272112 -67.480667 13.880858 -7.049634 65.993675 -55.002369 57.263172 -16.993315 -69.480766 -7.283101 -3.965548 15.399712 25.615843 36.148392 76.042709 -44.017906 29.891783 -12.307020 7.008759 -3.396256 -69.575829 47.088879 42.798027 79.269051 9.246620 -0.668488 44.017540 -15.055641 6.891976 -79.460342 -35.139969 4.314898 70.694664 -2.677670 -0.241996 14.690996 4.622800 10.517703 
0.351432 5.402042 -4.622759 -89.999779 -0.002623 -49.999363 30.732277 -16.266411 -8.121085 6.927909 -9.337221 -14.655685 -0.924908 -25.448536 5.751954 -2.650335 0.181388 29.362534 -17.146038 -5.521405 -3.468535 -61.005604 -30.006786 -67.393921 13.880857 -7.049634 65.993668 -53.552452 57.350147 -15.598863 -69.146729 -7.418445 -4.294682 15.399710 25.615841 36.148388 76.042709 -44.017902 29.891783 -11.561122 7.171172 -2.992008 -69.575821 47.088875 42.798027 79.269035 9.246620 -0.668488 44.017540 -15.055641 6.891976 -79.460342 -35.139969 4.314898 70.694664 -2.677670 -0.241996 14.690996 4.622800 10.517703 
0.351432 5.402042 -4.622759 -89.999779 -0.002623 -49.999363 30.732277 -16.266411 -8.121085 6.089547 -9.368614 -14.662876 -0.961157 -25.103092 5.316225 -2.831432 0.387486 29.376787 -17.035236 -5.822428 -3.457710 -61.168797 -29.741232 -67.308281 13.880857 -7.049634 65.993668 -52.095371 57.417999 -14.197252 -68.813339 -7.555712 -4.623170 15.399710 25.615841 36.148384 76.042709 -44.017895 29.891783 -10.813512 7.328404 -2.585350 -69.575821 47.088871 42.798027 79.269035 9.246620 -0.668488 44.017540 -15.055641 6.891976 -79.460335 -35.139965 4.314895 70.694664 -2.677670 -0.241996 14.690996 4.622800 10.517703 
0.351432 5.402042 -4.622759 -89.999779 -0.002623 -49.999363 30.732277 -16.266411 -8.121085 5.250841 -9.400117 -14.669600 -1.000253 -24.757433 4.880872 -3.012541 0.593694 29.390392 -16.924309 -6.123443 -3.446291 -61.331116 -29.475464 -67.223717 13.880857 -7.049634 65.993668 -50.632900 57.466610 -12.790246 -68.480606 -7.694888 -4.950994 15.399709 25.615837 36.148384 76.042709 -44.017899 29.891781 -10.064308 7.480402 -2.176390 -69.575821 47.088875 42.798027 79.269035 9.246620 -0.668488 44.017536 -15.055639 6.891975 -79.460335 -35.139965 4.314897 70.694664 -2.677669 -0.241996 14.690996 4.622800 10.517703 
0.351432 5.402042 -4.622759 -89.999779 -0.002623 -49.999363 30.732277 -16.266411 -8.121085 4.411881 -9.431721 -14.675857 -1.042182 -24.411592 4.445881 -3.193665 0.800006 29.403353 -16.813263 -6.424448 -3.434282 -61.492558 -29.209471 -67.140244 13.880858 -7.049634 65.993668 -49.166790 57.495857 -11.379605 -68.148537 -7.835957 -5.278133 15.399712 25.615841 36.148396 76.042717 -44.017906 29.891787 -9.313613 7.627110 -1.765234 -69.575821 47.088875 42.798035 79.269035 9.246620 -0.668488 44.017540 -15.055644 6.891976 -79.460342 -35.139969 4.314898 70.694664 -2.677670 -0.241996 14.690998 4.622800 10.517705 
0.351432 5.402042 -4.622759 -89.999779 -0.002623 -49.999363 30.732277 -16.266411 -8.121085 3.572757 -9.463414 -14.681647 -1.086931 -24.065615 4.011234 -3.374805 1.006420 29.415672 -16.702080 -6.725431 -3.421675 -61.653141 -28.943272 -67.057838 13.880857 -7.049634 65.993668 -47.698853 57.505680 -9.967135 -67.817146 -7.978902 -5.604564 15.399710 25.615841 36.148388 76.042717 -44.017902 29.891783 -8.561543 7.768474 -1.351991 -69.575821 47.088875 42.798027 79.269035 9.246620 -0.668488 44.017540 -15.055641 6.891976 -79.460342 -35.139969 4.314898 70.694664 -2.677670 -0.241996 14.690996 4.622800 10.517703 
